<?xml version="1.0" encoding="UTF-8"?>
<svg version="1.1" xmlns="http://www.w3.org/2000/svg" width="512" height="512">
<path d="M0 0 C0.8041654 -0.00486483 1.6083308 -0.00972965 2.43686485 -0.0147419 C8.53212344 -0.05115392 14.6272978 -0.06744565 20.72265625 -0.07421875 C21.61874352 -0.07536934 22.51483078 -0.07651993 23.4380722 -0.07770538 C52.39430401 -0.10354665 81.02945162 0.49575988 109.78515625 4.23828125 C110.63265442 4.34718689 111.48015259 4.45609253 112.35333252 4.56829834 C196.59168859 15.50315189 196.59168859 15.50315189 214.78515625 37.23828125 C218.5342164 42.78098975 219.36679833 46.65886711 219.30413818 53.28025818 C219.31539006 54.6123006 219.31539006 54.6123006 219.32686925 55.97125298 C219.34710324 58.93477004 219.3390521 61.89751888 219.33105469 64.86108398 C219.33979201 66.99017593 219.35027835 69.11926131 219.36238098 71.24833679 C219.39024183 77.02051771 219.39364563 82.79248438 219.39266109 88.56472278 C219.39579009 94.59992443 219.42140808 100.63502957 219.44464111 106.67018127 C219.48520552 118.09513793 219.50554291 129.52003749 219.51861501 140.94505507 C219.53448351 153.95348548 219.57289857 166.96181873 219.61320829 179.97019279 C219.69561333 206.72618967 219.74970172 233.48218388 219.78515625 260.23828125 C220.74420868 260.43562866 221.70326111 260.63297607 222.69137573 260.83630371 C223.95063873 261.09979614 225.20990173 261.36328857 226.50732422 261.63476562 C227.75512665 261.89398804 229.00292908 262.15321045 230.2885437 262.42028809 C234.47287044 263.39916425 238.11801708 264.74907946 241.91015625 266.73828125 C242.57265381 267.07939941 243.23515137 267.42051758 243.91772461 267.77197266 C259.07090692 275.98625643 269.01223282 289.62318544 274.65454102 305.71826172 C277.44916327 315.42173634 277.12136954 324.99175499 276.97265625 334.98828125 C276.95757491 336.76431151 276.94389264 338.54035422 276.93164062 340.31640625 C276.89892483 344.62401114 276.84733561 348.93100505 276.78515625 353.23828125 C278.02652344 353.18027344 279.26789063 353.12226563 280.546875 353.0625 C282.18876439 353.01558887 283.83069457 352.97009016 285.47265625 352.92578125 C286.28927734 352.88388672 287.10589844 352.84199219 287.94726562 352.79882812 C288.74326172 352.78271484 289.53925781 352.76660156 290.359375 352.75 C291.08729248 352.72381592 291.81520996 352.69763184 292.56518555 352.6706543 C296.33677686 353.63501697 297.55318019 355.03592531 299.78515625 358.23828125 C300.5322861 362.37904664 300.45746162 366.4747556 300.41625977 370.67260742 C300.42699272 372.56618484 300.42699272 372.56618484 300.4379425 374.49801636 C300.45644223 377.9551612 300.44352421 381.41153377 300.42385221 384.86864638 C300.40743423 388.49547289 300.41628379 392.12225167 300.42137146 395.74909973 C300.42589183 401.84465821 300.41003359 407.93990981 300.38208008 414.03540039 C300.35010001 421.06266651 300.35001602 428.08937704 300.36729485 435.11668223 C300.38321947 441.89397785 300.37638381 448.67107161 300.35935783 455.44835854 C300.35252059 458.32334136 300.35348551 461.19816076 300.36090279 464.0731411 C300.37006286 468.10139585 300.34590564 472.12880975 300.31860352 476.15698242 C300.32839233 477.92869057 300.32839233 477.92869057 300.33837891 479.7361908 C300.22129359 489.93869123 297.76946172 498.02927002 290.72265625 505.546875 C285.51889866 510.08967144 279.41350125 512.35437429 272.55638123 512.38545227 C271.4728688 512.39260757 270.38935638 512.39976288 269.27301025 512.40713501 C268.08391052 512.40982391 266.89481079 512.41251282 265.66967773 512.4152832 C264.41733841 512.4218544 263.16499908 512.4284256 261.87471008 512.43519592 C257.7185543 512.45495099 253.56243716 512.46660072 249.40625 512.4765625 C247.97291609 512.48061129 246.53958237 512.48472825 245.10624886 512.48891258 C238.36797008 512.50796561 231.62970224 512.52219338 224.89140171 512.53052455 C217.12890319 512.54028164 209.366691 512.56656035 201.60429329 512.60702544 C195.59563128 512.63726608 189.58705094 512.65200114 183.57831436 512.65530556 C179.99415729 512.65764807 176.41030601 512.66650244 172.826231 512.69176674 C168.81943897 512.71955331 164.81327898 512.7151922 160.80639648 512.70825195 C159.63146637 512.72106201 158.45653625 512.73387207 157.2460022 512.74707031 C148.91397459 512.69462888 142.07664519 511.22505522 135.1640625 506.4140625 C130.57159119 501.7030758 128.33161363 497.61393778 126.78515625 491.23828125 C125.20347656 491.686875 125.20347656 491.686875 123.58984375 492.14453125 C117.76991966 493.59377144 111.86674711 494.13432287 105.91015625 494.73828125 C104.05946533 494.92946533 104.05946533 494.92946533 102.17138672 495.12451172 C71.43292888 498.23721726 40.68357477 499.68299896 9.78515625 499.23828125 C8.71088379 499.22571289 7.63661133 499.21314453 6.52978516 499.20019531 C-129.0285483 497.26392995 -129.0285483 497.26392995 -168.8203125 462.953125 C-173.05138572 457.75020863 -174.71467908 453.72587189 -174.71820831 447.01178837 C-174.72402208 446.31556339 -174.72983584 445.61933842 -174.73582578 444.90201572 C-174.7503924 442.57535789 -174.73655715 440.2497606 -174.72277832 437.92311096 C-174.72738859 436.23572229 -174.73374235 434.54833764 -174.7416873 432.86096138 C-174.7583867 428.22886861 -174.75013145 423.59710544 -174.73774242 418.96501148 C-174.72869671 413.96763873 -174.74265934 408.97032289 -174.75366211 403.97296143 C-174.77145739 394.18471835 -174.76760272 384.39659789 -174.75601155 374.60834999 C-174.74698097 366.65329239 -174.74575161 358.69826918 -174.75010681 350.74320793 C-174.75071974 349.6113434 -174.75133268 348.47947886 -174.75196418 347.3133154 C-174.75324307 345.01399898 -174.75453993 342.71468257 -174.75585455 340.41536617 C-174.76726344 318.84948792 -174.75414205 297.28367766 -174.73265308 275.71781056 C-174.71478425 257.21214889 -174.71788386 238.70658759 -174.73632812 220.20092773 C-174.75773353 198.71419352 -174.76616222 177.22751892 -174.75387907 155.74077553 C-174.75260487 153.4495738 -174.75134738 151.15837207 -174.75010681 148.86717033 C-174.74948971 147.73983985 -174.74887261 146.61250936 -174.74823681 145.45101734 C-174.74478274 137.50576278 -174.75061353 129.56054602 -174.76002502 121.61529732 C-174.7712428 111.93223512 -174.76820964 102.24930262 -174.74690205 92.56625528 C-174.73638836 87.62551783 -174.7322753 82.68499665 -174.74549866 77.74426079 C-174.7574218 73.22091961 -174.75086122 68.69799508 -174.72958845 64.17469167 C-174.72512204 62.53883818 -174.72738956 60.90294946 -174.7370916 59.26711864 C-174.83152471 42.02146546 -174.83152471 42.02146546 -167.83203125 34.76953125 C-131.18853055 7.6261974 -77.41519985 4.83478473 -33.48774719 1.41572571 C-31.73446186 1.27884758 -29.9817908 1.13408625 -28.22941589 0.98600769 C-18.80882713 0.2377016 -9.44352927 0.04397659 0 0 Z M218.78515625 285.23828125 C218.78515625 307.67828125 218.78515625 330.11828125 218.78515625 353.23828125 C230.00515625 353.23828125 241.22515625 353.23828125 252.78515625 353.23828125 C252.82640625 348.68015625 252.86765625 344.12203125 252.91015625 339.42578125 C252.92836426 338.01192139 252.94657227 336.59806152 252.96533203 335.14135742 C253.02599293 321.17467361 251.07055291 309.29728966 242.47265625 297.86328125 C236.63438639 292.16078511 227.32729821 285.23828125 218.78515625 285.23828125 Z " fill="#ECC423" transform="translate(193.21484375,-0.23828125)"/>
<path d="M0 0 C0.8041654 -0.00486483 1.6083308 -0.00972965 2.43686485 -0.0147419 C8.53212344 -0.05115392 14.6272978 -0.06744565 20.72265625 -0.07421875 C21.61874352 -0.07536934 22.51483078 -0.07651993 23.4380722 -0.07770538 C52.39430401 -0.10354665 81.02945162 0.49575988 109.78515625 4.23828125 C110.63265442 4.34718689 111.48015259 4.45609253 112.35333252 4.56829834 C196.75113676 15.52384962 196.75113676 15.52384962 216.125 38.8515625 C218.89257982 42.9050885 219.33901274 46.30705054 218.4921875 50.984375 C215.68028074 59.94829877 207.6722323 64.80903844 199.85351562 69.16992188 C189.14504642 74.70111419 177.41206422 78.24031171 165.78515625 81.23828125 C164.5115625 81.57601562 163.23796875 81.91375 161.92578125 82.26171875 C149.98473847 85.38051714 138.17864281 88.23828125 125.78515625 88.23828125 C125.78515625 125.52828125 125.78515625 162.81828125 125.78515625 201.23828125 C116.69531684 202.89097932 107.86405795 204.10814899 98.70558167 204.9649353 C96.82281136 205.14115882 94.94032625 205.32047009 93.05821228 205.50357056 C70.10783561 207.6723694 47.17398249 207.50990912 24.14471436 207.43389893 C19.95855164 207.42297071 15.77242102 207.42343377 11.58624649 207.42403698 C7.52497445 207.4237649 3.46372328 207.41828115 -0.59754181 207.41103554 C-2.52236016 207.40787468 -4.44718084 207.40588757 -6.37200165 207.40514183 C-9.04719582 207.40296338 -11.72228873 207.39419344 -14.39746094 207.38354492 C-15.17562668 207.38399811 -15.95379242 207.38445129 -16.75553894 207.38491821 C-21.65726496 207.35652214 -26.35931217 206.9150918 -31.21484375 206.23828125 C-32.60398254 206.14301759 -33.99487969 206.06691351 -35.38671875 206.02734375 C-36.11955078 206.00099854 -36.85238281 205.97465332 -37.60742188 205.94750977 C-38.38537109 205.91971436 -39.16332031 205.89191895 -39.96484375 205.86328125 C-48.58419123 205.49201427 -57.13740691 204.71857382 -65.71484375 203.80078125 C-66.87081055 203.67848145 -68.02677734 203.55618164 -69.21777344 203.43017578 C-76.60236622 202.61543377 -83.89757918 201.51526692 -91.21484375 200.23828125 C-93.33061759 199.88994659 -95.44650641 199.54230978 -97.5625 199.1953125 C-121.8178888 195.11017545 -146.32355061 190.2470944 -168.44750977 179.13500977 C-170.06774803 178.322062 -170.06774803 178.322062 -171.72071838 177.49269104 C-172.54377975 177.07873581 -173.36684113 176.66478058 -174.21484375 176.23828125 C-174.3083922 159.29620751 -174.3788743 142.35421467 -174.42209244 125.41194153 C-174.44269507 117.54488477 -174.47077143 109.67798874 -174.51660156 101.81103516 C-174.55654005 94.95212442 -174.58229328 88.09333012 -174.59119773 81.23430634 C-174.59640069 77.60432008 -174.60858087 73.97466685 -174.63776398 70.3447876 C-174.67012102 66.28700144 -174.67079869 62.22978984 -174.66894531 58.171875 C-174.68332642 56.97569046 -174.69770752 55.77950592 -174.71252441 54.54707336 C-174.67243181 46.42997269 -173.66254576 40.81032661 -167.83203125 34.76953125 C-131.18853055 7.6261974 -77.41519985 4.83478473 -33.48774719 1.41572571 C-31.73446186 1.27884758 -29.9817908 1.13408625 -28.22941589 0.98600769 C-18.80882713 0.2377016 -9.44352927 0.04397659 0 0 Z " fill="#ECC423" transform="translate(193.21484375,-0.23828125)"/>
<path d="M0 0 C4.67764814 0.71186935 8.60455846 1.91349234 13 3.6875 C64.32322698 23.43132849 124.15989274 27.20708613 178.609375 27.1328125 C180.40008558 27.13348902 182.19079607 27.13446191 183.98150635 27.13571167 C187.68885189 27.13716773 191.39617297 27.13509958 195.10351562 27.13037109 C199.83728819 27.12462448 204.57100464 27.12799694 209.30477524 27.13394356 C212.98346375 27.13756351 216.66213902 27.13640484 220.34082794 27.13381577 C222.0870184 27.13315306 223.8332101 27.13395173 225.57939911 27.13629532 C228.01357715 27.13885114 230.44766461 27.13494246 232.88183594 27.12939453 C233.94170212 27.13243088 233.94170212 27.13243088 235.02297974 27.13552856 C239.77363029 27.11559567 244.30424369 26.64523158 249 26 C251.20028735 25.82459022 253.40227897 25.66927487 255.60546875 25.53515625 C256.83845703 25.45716797 258.07144531 25.37917969 259.34179688 25.29882812 C261.85476973 25.14439963 264.36778885 24.99072146 266.88085938 24.83789062 C277.96265806 24.13491938 288.92466163 23.05479413 300 22 C300.33 63.25 300.66 104.5 301 147 C296.06402505 148.23399374 291.93296503 149.25857404 287.0078125 149.78125 C285.90453613 149.90000488 284.80125977 150.01875977 283.66455078 150.14111328 C282.49649902 150.2595459 281.32844727 150.37797852 280.125 150.5 C278.89120605 150.62745605 277.65741211 150.75491211 276.38623047 150.88623047 C245.64777263 153.99893601 214.89841852 155.44471771 184 155 C182.92572754 154.98743164 181.85145508 154.97486328 180.74462891 154.96191406 C45.18629545 153.0256487 45.18629545 153.0256487 5.39453125 118.71484375 C0.1026494 112.20745962 -0.5716569 107.30986725 -0.45410156 99.10766602 C-0.45497772 97.49679359 -0.45497772 97.49679359 -0.45587158 95.8533783 C-0.45309504 92.31988693 -0.42202196 88.78724943 -0.390625 85.25390625 C-0.38316112 82.7976884 -0.37746888 80.34146459 -0.37347412 77.88523865 C-0.35822959 71.43249969 -0.31895726 64.98012304 -0.2746582 58.52752686 C-0.23368044 51.93832296 -0.21545771 45.34906031 -0.1953125 38.75976562 C-0.15246244 25.83968952 -0.08499791 12.91986406 0 0 Z " fill="#ECC423" transform="translate(19,344)"/>
<path d="M0 0 C11.46647197 12.12483399 17.66302742 28.32758107 17.4453125 44.87890625 C17.4424826 45.70962143 17.43965271 46.54033661 17.43673706 47.39622498 C17.42566291 50.01430505 17.4005836 52.63202571 17.375 55.25 C17.36495365 57.03970855 17.35583072 58.82942254 17.34765625 60.61914062 C17.32576565 64.97539604 17.29132633 69.33138738 17.25 73.6875 C18.49136719 73.62949219 19.73273438 73.57148438 21.01171875 73.51171875 C22.65360814 73.46480762 24.29553832 73.41930891 25.9375 73.375 C26.75412109 73.33310547 27.57074219 73.29121094 28.41210938 73.24804688 C29.60610352 73.22387695 29.60610352 73.22387695 30.82421875 73.19921875 C31.55213623 73.17303467 32.28005371 73.14685059 33.0300293 73.11987305 C36.80162061 74.08423572 38.01802394 75.48514406 40.25 78.6875 C40.99712985 82.82826539 40.92230537 86.92397435 40.88110352 91.12182617 C40.89183647 93.01540359 40.89183647 93.01540359 40.90278625 94.94723511 C40.92128598 98.40437995 40.90836796 101.86075252 40.88869596 105.31786513 C40.87227798 108.94469164 40.88112754 112.57147042 40.88621521 116.19831848 C40.89073558 122.29387696 40.87487734 128.38912856 40.84692383 134.48461914 C40.81494376 141.51188526 40.81485977 148.53859579 40.8321386 155.56590098 C40.84806322 162.3431966 40.84122756 169.12029036 40.82420158 175.89757729 C40.81736434 178.77256011 40.81832926 181.64737951 40.82574654 184.52235985 C40.83490661 188.5506146 40.81074939 192.5780285 40.78344727 196.60620117 C40.79323608 198.37790932 40.79323608 198.37790932 40.80322266 200.18540955 C40.68613734 210.38790998 38.23430547 218.47848877 31.1875 225.99609375 C25.98374241 230.53889019 19.878345 232.80359304 13.02122498 232.83467102 C11.93771255 232.84182632 10.85420013 232.84898163 9.737854 232.85635376 C8.54875427 232.85904266 7.35965454 232.86173157 6.13452148 232.86450195 C4.88218216 232.87107315 3.62984283 232.87764435 2.33955383 232.88441467 C-1.81660195 232.90416974 -5.97271909 232.91581947 -10.12890625 232.92578125 C-11.56224016 232.92983004 -12.99557388 232.933947 -14.42890739 232.93813133 C-21.16718617 232.95718436 -27.90545401 232.97141213 -34.64375454 232.9797433 C-42.40625306 232.98950039 -50.16846525 233.0157791 -57.93086296 233.05624419 C-63.93952497 233.08648483 -69.94810531 233.10121989 -75.95684189 233.10452431 C-79.54099896 233.10686682 -83.12485024 233.11572119 -86.70892525 233.14098549 C-90.71571728 233.16877206 -94.72187727 233.16441095 -98.72875977 233.1574707 C-100.49115494 233.17668579 -100.49115494 233.17668579 -102.28915405 233.19628906 C-111.08383208 233.14093572 -119.68775437 231.63252124 -126.125 225.125 C-133.49606493 216.78499811 -134.34450454 207.23188392 -134.29931641 196.49267578 C-134.30953827 195.22138321 -134.31976013 193.95009064 -134.33029175 192.64027405 C-134.35682259 189.18810079 -134.35825915 185.73636857 -134.35316515 182.28411341 C-134.35101178 179.39356079 -134.36082611 176.50309495 -134.37037599 173.61256111 C-134.39247299 166.79600197 -134.39348962 159.97966344 -134.38134766 153.16308594 C-134.36923064 146.14000041 -134.39400431 139.11771245 -134.43648779 132.09476292 C-134.47171681 126.04775215 -134.48372444 120.00099552 -134.47721231 113.95388591 C-134.47359069 110.34923515 -134.47881887 106.74515562 -134.50664139 103.1405983 C-134.536461 99.1285217 -134.51786361 95.11807698 -134.49462891 91.10595703 C-134.50991638 89.91626816 -134.52520386 88.72657928 -134.54095459 87.50083923 C-134.44120559 79.72754203 -134.44120559 79.72754203 -132.51588058 76.83054733 C-129.77046703 74.36030824 -127.12586529 73.05765903 -123.4453125 73.19921875 C-122.69765625 73.21533203 -121.95 73.23144531 -121.1796875 73.24804688 C-120.41914063 73.28994141 -119.65859375 73.33183594 -118.875 73.375 C-118.09125 73.39755859 -117.3075 73.42011719 -116.5 73.44335938 C-114.5824974 73.50181982 -112.6659894 73.59148717 -110.75 73.6875 C-110.77094727 72.65044922 -110.79189453 71.61339844 -110.81347656 70.54492188 C-110.88708135 66.61619442 -110.93222681 62.68752463 -110.96972656 58.75830078 C-110.98957276 57.07297446 -111.01665893 55.38771439 -111.05175781 53.70263672 C-111.3896381 37.03718849 -109.46627176 22.78844524 -99.75 8.6875 C-99.2034375 7.87667969 -98.656875 7.06585938 -98.09375 6.23046875 C-89.75985438 -5.30725939 -76.13631687 -14.11923098 -62.3125 -17.75 C-60.79916289 -17.9906264 -59.27556172 -18.16844541 -57.75 -18.3125 C-56.46351563 -18.44269531 -55.17703125 -18.57289063 -53.8515625 -18.70703125 C-32.82760982 -20.54178016 -15.62938945 -14.48577559 0 0 Z M-40.75 5.6875 C-40.75 28.1275 -40.75 50.5675 -40.75 73.6875 C-29.53 73.6875 -18.31 73.6875 -6.75 73.6875 C-6.70875 69.129375 -6.6675 64.57125 -6.625 59.875 C-6.60679199 58.46114014 -6.58858398 57.04728027 -6.56982422 55.59057617 C-6.50916332 41.62389236 -8.46460334 29.74650841 -17.0625 18.3125 C-22.90076986 12.61000386 -32.20785804 5.6875 -40.75 5.6875 Z " fill="#2D3D4B" transform="translate(452.75,279.3125)"/>
<path d="M0 0 C0.33 0 0.66 0 1 0 C1 70.29 1 140.58 1 213 C-4.61 213.33 -10.22 213.66 -16 214 C-27.68239713 216.31080383 -39.00222949 221.26307483 -47.546875 229.71484375 C-49 231 -49 231 -51 231 C-51.27328125 231.5878125 -51.5465625 232.175625 -51.828125 232.78125 C-52.9655716 234.93481556 -54.21442675 236.6176844 -55.75 238.5 C-67.00880337 253.39245141 -68.44557132 269.32101255 -68.6875 287.3125 C-68.72075643 289.03583184 -68.75525341 290.75914021 -68.79101562 292.48242188 C-68.87495067 296.65481589 -68.9421992 300.8271655 -69 305 C-70.16917969 305.02578125 -71.33835937 305.0515625 -72.54296875 305.078125 C-74.09118226 305.13442367 -75.6393579 305.19177062 -77.1875 305.25 C-77.95642578 305.26417969 -78.72535156 305.27835937 -79.51757812 305.29296875 C-84.54654968 305.50880444 -87.36845129 306.1981043 -91 310 C-91.79866569 312.09960785 -91.79866569 312.09960785 -91.8125 314.25 C-91.874375 315.4875 -91.93625 316.725 -92 318 C-98.79813485 319.49418573 -105.50408688 320.48126705 -112.4375 321.0625 C-113.85506592 321.18709595 -113.85506592 321.18709595 -115.30126953 321.31420898 C-122.41283147 321.91862637 -129.52716104 322.35875701 -136.65795898 322.65844727 C-137.73605835 322.70569946 -137.73605835 322.70569946 -138.8359375 322.75390625 C-139.45001465 322.77783447 -140.0640918 322.8017627 -140.69677734 322.82641602 C-142.68710424 322.97641839 -144.66914544 323.22968072 -146.64648438 323.50177002 C-150.75312431 324.01850872 -154.82348195 324.14797675 -158.95947266 324.14526367 C-160.08863098 324.15030159 -160.08863098 324.15030159 -161.24060059 324.15544128 C-163.71510509 324.1648868 -166.18954111 324.16689301 -168.6640625 324.16796875 C-170.41922023 324.17119218 -172.17437771 324.17455702 -173.92953491 324.17805481 C-177.61627826 324.18403486 -181.30299824 324.18589651 -184.98974609 324.18530273 C-188.70724447 324.18522236 -192.4246173 324.19202072 -196.14208984 324.20581055 C-218.5336656 324.28762886 -240.67757158 323.86442959 -263 322 C-264.69808342 321.87086057 -266.39631321 321.74362171 -268.09472656 321.61889648 C-286.22189116 320.27364489 -304.10874201 318.25689675 -322 315 C-323.04526855 314.81711426 -324.09053711 314.63422852 -325.16748047 314.44580078 C-348.17086979 310.41456531 -370.402786 304.96833463 -392 296 C-392 287.09 -392 278.18 -392 269 C-389.174375 270.340625 -386.34875 271.68125 -383.4375 273.0625 C-313.17625725 305.20042646 -221.56209113 302.63974343 -146.125 299.125 C-145.26937469 299.08588501 -144.41374939 299.04677002 -143.53219604 299.00646973 C-133.60758882 298.53627982 -123.78391487 297.73755003 -113.92529297 296.49560547 C-106.636685 295.76219245 -99.31277379 295.43016316 -92 295 C-92 256.06 -92 217.12 -92 177 C-110.81 178.98 -110.81 178.98 -130 181 C-136.40696905 181.49735534 -142.7740246 181.97405455 -149.1875 182.25 C-150.36688644 182.30454849 -150.36688644 182.30454849 -151.57009888 182.36019897 C-231.40007589 185.97390966 -316.78895133 183.3723622 -392 154 C-392 145.42 -392 136.84 -392 128 C-387.71052241 129.42982586 -384.12251039 130.84489423 -380.125 132.8125 C-372.60919679 136.3113824 -364.96192586 138.78133597 -357 141 C-355.90486084 141.30719971 -355.90486084 141.30719971 -354.78759766 141.62060547 C-340.78079678 145.48340674 -326.55766924 148.03571928 -312.24023438 150.45288086 C-310.14664705 150.80638668 -308.05410083 151.16614065 -305.96289062 151.53344727 C-298.50071035 152.82653932 -291.03049229 153.76578357 -283.5 154.5625 C-282.28473633 154.69253418 -281.06947266 154.82256836 -279.81738281 154.95654297 C-271.6818662 155.79752013 -263.56627038 156.41719001 -255.39257812 156.70922852 C-254.65974609 156.73557373 -253.92691406 156.76191895 -253.171875 156.7890625 C-252.5540918 156.80662598 -251.93630859 156.82418945 -251.29980469 156.84228516 C-249.32547128 156.97767999 -247.35959091 157.22770019 -245.39941406 157.49978638 C-241.02394271 158.0509387 -236.71540591 158.15469979 -232.30957031 158.16113281 C-231.06319542 158.16858017 -231.06319542 158.16858017 -229.79164124 158.17617798 C-227.05379373 158.19071843 -224.31600474 158.19759877 -221.578125 158.203125 C-220.62643181 158.20595238 -219.67473862 158.20877975 -218.69420624 158.21169281 C-213.6276777 158.2266752 -208.56117739 158.23590261 -203.49462891 158.24023438 C-199.38158027 158.24456584 -195.26874772 158.25824793 -191.15576172 158.28125 C-161.4119193 158.44423757 -132.18731727 157.35156811 -102.66366196 153.6293602 C-99.04771987 153.18528972 -95.661899 153 -92 153 C-92 115.71 -92 78.42 -92 40 C-80.12 38.02 -80.12 38.02 -68 36 C-31.49315823 28.58568926 -31.49315823 28.58568926 -2 7.375 C-0.96423808 4.91506545 -0.37703521 2.63924647 0 0 Z " fill="#E7A127" transform="translate(411,48)"/>
<path d="M0 0 C0.8041654 -0.00486483 1.6083308 -0.00972965 2.43686485 -0.0147419 C8.53212344 -0.05115392 14.6272978 -0.06744565 20.72265625 -0.07421875 C21.61874352 -0.07536934 22.51483078 -0.07651993 23.4380722 -0.07770538 C52.39430401 -0.10354665 81.02945162 0.49575988 109.78515625 4.23828125 C110.63265442 4.34718689 111.48015259 4.45609253 112.35333252 4.56829834 C196.75113676 15.52384962 196.75113676 15.52384962 216.125 38.8515625 C218.89257982 42.9050885 219.33901274 46.30705054 218.4921875 50.984375 C215.68028074 59.94829877 207.6722323 64.80903844 199.85351562 69.16992188 C189.13854956 74.70446997 177.41279811 78.2188025 165.78515625 81.23828125 C164.67398437 81.5528125 163.5628125 81.86734375 162.41796875 82.19140625 C141.27525939 87.92039846 119.10039305 90.73544898 97.33789062 92.88232422 C94.90297243 93.12628455 92.46938631 93.3838113 90.03710938 93.65283203 C48.8759435 98.16023378 6.11986786 98.18457979 -35.11633301 94.42834473 C-37.43741313 94.218123 -39.75917646 94.01663878 -42.08105469 93.81542969 C-78.89535991 90.59324288 -78.89535991 90.59324288 -96.71630859 86.76806641 C-99.40410755 86.19815007 -102.09898703 85.67619649 -104.796875 85.15625 C-159.18597162 74.37870827 -159.18597162 74.37870827 -171.92578125 55.734375 C-174.05442988 51.6125372 -174.7456782 47.77226455 -173.80078125 43.26171875 C-169.96521498 33.53720224 -158.98179277 28.23001942 -149.96484375 24.11328125 C-113.64537456 8.37303225 -72.56074087 4.4569417 -33.48774719 1.41572571 C-31.73446186 1.27884758 -29.9817908 1.13408625 -28.22941589 0.98600769 C-18.80882713 0.2377016 -9.44352927 0.04397659 0 0 Z " fill="#F8EC31" transform="translate(193.21484375,-0.23828125)"/>
<path d="M0 0 C11.46647197 12.12483399 17.66302742 28.32758107 17.4453125 44.87890625 C17.4424826 45.70962143 17.43965271 46.54033661 17.43673706 47.39622498 C17.42566291 50.01430505 17.4005836 52.63202571 17.375 55.25 C17.36495365 57.03970855 17.35583072 58.82942254 17.34765625 60.61914062 C17.32576565 64.97539604 17.29132633 69.33138738 17.25 73.6875 C18.49136719 73.62949219 19.73273438 73.57148438 21.01171875 73.51171875 C22.65360814 73.46480762 24.29553832 73.41930891 25.9375 73.375 C26.75412109 73.33310547 27.57074219 73.29121094 28.41210938 73.24804688 C32.80395561 73.15914311 34.67015819 73.25610957 38.30151367 75.95776367 C40.86536208 79.54959289 40.86536208 79.54959289 40.73828125 82.67578125 C40.72216797 83.38154297 40.70605469 84.08730469 40.68945312 84.81445312 C40.62661133 85.89629883 40.62661133 85.89629883 40.5625 87 C40.52866211 88.11084961 40.52866211 88.11084961 40.49414062 89.24414062 C40.4355815 91.05947357 40.34590886 92.87375681 40.25 94.6875 C38.25 92.6875 36.25 90.6875 34.25 88.6875 C32.17543223 88.58187829 30.09721504 88.54781429 28.01997375 88.54032898 C27.36181724 88.53665229 26.70366073 88.5329756 26.02556008 88.5291875 C23.80389757 88.51810971 21.58228176 88.5142999 19.3605957 88.51049805 C17.77414296 88.50423635 16.1876917 88.49758982 14.60124207 88.49058533 C10.27872734 88.47314521 5.95622371 88.46261485 1.63368249 88.4543798 C-1.06579072 88.44923481 -3.76526045 88.44315878 -6.46473122 88.43686867 C-14.90733295 88.41780609 -23.34992589 88.40357862 -31.79254502 88.3952567 C-41.5439549 88.38548676 -51.29513764 88.35917814 -61.04646748 88.31875581 C-68.57858051 88.28860285 -76.11062841 88.27378851 -83.64280063 88.27047569 C-88.14345123 88.26812375 -92.64385947 88.25914528 -97.14444542 88.23401451 C-101.38061967 88.2107438 -105.61639186 88.20649642 -109.85261345 88.21677589 C-111.40622545 88.21727165 -112.95985716 88.21093929 -114.51340866 88.19721985 C-116.63777199 88.17951186 -118.76069078 88.18659982 -120.88505554 88.19975281 C-122.66677674 88.19617028 -122.66677674 88.19617028 -124.4844923 88.19251537 C-128.41153004 88.78777451 -130.62668598 90.29482884 -133.75 92.6875 C-133.91271111 90.46076829 -134.02871548 88.23059147 -134.125 86 C-134.19460938 84.75863281 -134.26421875 83.51726562 -134.3359375 82.23828125 C-133.69097865 78.32983059 -132.69828593 77.1041553 -129.62295532 74.69792175 C-126.17164147 72.8360073 -122.69884581 73.16436443 -118.875 73.375 C-118.09125 73.39755859 -117.3075 73.42011719 -116.5 73.44335938 C-114.5824974 73.50181982 -112.6659894 73.59148717 -110.75 73.6875 C-110.77094727 72.65044922 -110.79189453 71.61339844 -110.81347656 70.54492188 C-110.88708135 66.61619442 -110.93222681 62.68752463 -110.96972656 58.75830078 C-110.98957276 57.07297446 -111.01665893 55.38771439 -111.05175781 53.70263672 C-111.3896381 37.03718849 -109.46627176 22.78844524 -99.75 8.6875 C-99.2034375 7.87667969 -98.656875 7.06585938 -98.09375 6.23046875 C-89.75985438 -5.30725939 -76.13631687 -14.11923098 -62.3125 -17.75 C-60.79916289 -17.9906264 -59.27556172 -18.16844541 -57.75 -18.3125 C-56.46351563 -18.44269531 -55.17703125 -18.57289063 -53.8515625 -18.70703125 C-32.82760982 -20.54178016 -15.62938945 -14.48577559 0 0 Z M-40.75 5.6875 C-40.75 28.1275 -40.75 50.5675 -40.75 73.6875 C-29.53 73.6875 -18.31 73.6875 -6.75 73.6875 C-6.70875 69.129375 -6.6675 64.57125 -6.625 59.875 C-6.60679199 58.46114014 -6.58858398 57.04728027 -6.56982422 55.59057617 C-6.50916332 41.62389236 -8.46460334 29.74650841 -17.0625 18.3125 C-22.90076986 12.61000386 -32.20785804 5.6875 -40.75 5.6875 Z " fill="#3B5465" transform="translate(452.75,279.3125)"/>
<path d="M0 0 C0 22.44 0 44.88 0 68 C-15.18 68 -30.36 68 -46 68 C-46.103125 62.1425 -46.20625 56.285 -46.3125 50.25 C-46.35802002 48.42758789 -46.40354004 46.60517578 -46.45043945 44.72753906 C-46.6345247 32.05888774 -44.36391661 22.01793504 -36.01171875 12.03515625 C-24.97037129 0.86517174 -15.83566137 0 0 0 Z " fill="#E7A028" transform="translate(412,285)"/>
<path d="M0 0 C4.96956795 2.87175853 8.41685018 7.06769254 10.625 12.375 C11.57284719 19.47283247 10.78866723 25.47066922 6.625 31.375 C5.11328125 33.09375 5.11328125 33.09375 3.625 34.375 C2.965 34.375 2.305 34.375 1.625 34.375 C1.89763672 35.44983643 2.17027344 36.52467285 2.45117188 37.63208008 C3.4610973 41.61750929 4.46636077 45.60410206 5.47021484 49.59106445 C5.90546488 51.31697203 6.34198108 53.0425608 6.77978516 54.76782227 C7.40860263 57.24673196 8.03286806 59.72674987 8.65625 62.20703125 C8.85311401 62.97900345 9.04997803 63.75097565 9.25280762 64.54634094 C10.00769301 67.5649332 10.625 70.25030013 10.625 73.375 C-2.575 73.375 -15.775 73.375 -29.375 73.375 C-28.6856624 67.86029919 -27.91774333 63.10926031 -26.52734375 57.8125 C-26.35119034 57.13574219 -26.17503693 56.45898438 -25.99354553 55.76171875 C-25.43793303 53.63153953 -24.87535569 51.50327543 -24.3125 49.375 C-23.93117539 47.91809044 -23.55031194 46.4610601 -23.16992188 45.00390625 C-22.24359937 41.45952778 -21.31102767 37.91682948 -20.375 34.375 C-20.98988281 34.10558594 -21.60476563 33.83617187 -22.23828125 33.55859375 C-26.16555575 31.38315651 -27.99377076 27.51868772 -29.375 23.375 C-29.95259444 17.42861791 -30.14787683 12.02386209 -26.71875 6.94140625 C-19.69561289 -1.24544834 -10.38420997 -4.76684686 0 0 Z " fill="#E8C225" transform="translate(415.375,393.625)"/>
<path d="M0 0 C0.79148437 0.43441406 1.58296875 0.86882812 2.3984375 1.31640625 C15.95326302 9.4354229 23.90111842 23.13892679 28 38 C28.9876072 42.0706515 29.11546213 45.86640058 29.09765625 50.05078125 C29.0962413 50.70958786 29.09482635 51.36839447 29.09336853 52.04716492 C29.087805 54.13565762 29.07525947 56.22404011 29.0625 58.3125 C29.05748028 59.73502449 29.0529182 61.15755066 29.04882812 62.58007812 C29.03784757 66.05342077 29.02060835 69.52669961 29 73 C25.04 73 21.08 73 17 73 C16.95101562 71.03417969 16.90203125 69.06835938 16.8515625 67.04296875 C16.7958501 65.0999989 16.74007353 63.15703039 16.68261719 61.21411133 C16.62634176 59.23469465 16.57869039 57.25503875 16.53125 55.27539062 C16.22802525 45.29424246 15.87613724 35.61031136 11.125 26.625 C10.63257813 25.66851562 10.14015625 24.71203125 9.6328125 23.7265625 C4.61491995 15.34740222 -2.89730498 10.0945526 -11.99609375 6.69140625 C-22.73997331 4.21849769 -34.29123056 4.96906096 -43.76953125 10.6640625 C-53.20499291 17.00489484 -58.85877964 25.0621096 -62 36 C-63.28700071 43.60740828 -63.33251822 51.30126571 -63.5625 59 C-63.60578135 60.36068789 -63.64939839 61.72136515 -63.69335938 63.08203125 C-63.79886683 66.38793157 -63.90098256 69.69389999 -64 73 C-67.63 73 -71.26 73 -75 73 C-75.10038357 68.6808038 -75.17216491 64.36226129 -75.21972656 60.04223633 C-75.23959449 58.57889958 -75.26669882 57.11563951 -75.30175781 55.65258789 C-75.7239058 37.55609706 -70.77746507 22.49572221 -58.23999023 9.14624023 C-54.18799361 5.00673634 -50.13277336 1.67719785 -45 -1 C-43.89591797 -1.61488281 -43.89591797 -1.61488281 -42.76953125 -2.2421875 C-30.05484822 -8.10428301 -11.88734887 -7.11354051 0 0 Z " fill="#2E3F4D" transform="translate(429,280)"/>
<path d="M0 0 C10 3 10 3 14.3671875 4.39453125 C28.69876454 8.93783802 43.27646436 12.00861884 58 15 C58 22.26 58 29.52 58 37 C48.38896695 36.48777103 39.46992658 35.01371864 30.125 32.75 C28.79997524 32.43543268 27.47494263 32.1208984 26.14990234 31.80639648 C17.23360317 29.66449567 8.60729143 27.15600686 0 24 C0 16.08 0 8.16 0 0 Z " fill="#E25B4C" transform="translate(42,427)"/>
<path d="M0 0 C10 3 10 3 14.5078125 4.4296875 C26.74524234 8.28685154 39.06738261 11.08344695 51.66015625 13.52270508 C53.78626859 13.95640183 55.89489214 14.47372303 58 15 C58 22.26 58 29.52 58 37 C50.87865593 37 44.90268505 35.94318218 38 34.4375 C36.77571289 34.17372559 35.55142578 33.90995117 34.29003906 33.63818359 C22.63311129 31.05194412 11.36856524 27.64377091 0 24 C0 16.08 0 8.16 0 0 Z " fill="#E25B4C" transform="translate(42,284)"/>
<path d="M0 0 C10 3 10 3 13.921875 4.2109375 C24.57663041 7.47223116 35.34457689 10.01902829 46.22851562 12.39331055 C50.15443461 13.25271054 54.07681991 14.1281822 58 15 C58 22.26 58 29.52 58 37 C48.75861515 36.51014811 40.1842128 34.89646795 31.22753906 32.72631836 C29.00567974 32.18887387 26.78063523 31.66670532 24.5546875 31.14648438 C16.20256989 29.16939458 8.1065376 26.853963 0 24 C0 16.08 0 8.16 0 0 Z " fill="#E25B4C" transform="translate(42,141)"/>
<path d="M0 0 C5.33739473 1.98844117 8.45333824 4.90667648 11 10 C11.40331428 15.24308569 10.86051133 18.56127553 8 23 C3.78947368 27 3.78947368 27 0 27 C0.23710693 27.84183838 0.47421387 28.68367676 0.71850586 29.55102539 C1.60357572 32.70157913 2.48461978 35.85320307 3.36303711 39.00561523 C3.74263616 40.3647831 4.12379313 41.72351692 4.5065918 43.08178711 C5.05937159 45.04426347 5.60636341 47.00827882 6.15234375 48.97265625 C6.48226318 50.15093994 6.81218262 51.32922363 7.15209961 52.54321289 C7.99531799 55.98091201 8.49942448 59.49597137 9 63 C0.75 63 -7.5 63 -16 63 C-14.73860271 58.19394893 -13.47588941 53.38828541 -12.2097168 48.58349609 C-11.77923648 46.94828794 -11.34954519 45.31287185 -10.9206543 43.67724609 C-10.30463844 41.32855212 -9.68580444 38.98061642 -9.06640625 36.6328125 C-8.87470352 35.89942657 -8.68300079 35.16604065 -8.48548889 34.41043091 C-7.11387171 29.22774341 -7.11387171 29.22774341 -6 27 C-6.721875 26.95875 -7.44375 26.9175 -8.1875 26.875 C-12.16608196 25.63721895 -13.60744824 23.32298855 -16 20 C-17.20643566 16.38069302 -17.32268559 13.80768995 -17 10 C-13.30090764 2.74408806 -8.25966171 -1.03245771 0 0 Z " fill="#E8A128" transform="translate(409,398)"/>
<path d="M0 0 C4.96956795 2.87175853 8.41685018 7.06769254 10.625 12.375 C11.56568695 19.41921389 10.89760701 25.5735368 6.625 31.375 C3.875 33.875 3.875 33.875 1.625 35.375 C-1.29017292 34.30098892 -3.15310176 33.59689824 -5.375 31.375 C-4.89289063 31.07207031 -4.41078125 30.76914062 -3.9140625 30.45703125 C1.28474098 27.01331303 1.28474098 27.01331303 3.625 21.375 C4.0838558 17.16882186 3.90288643 14.93077287 2 11.125 C-1.54455656 7.02077662 -4.51576946 5.60740382 -9.875 4.9375 C-15.05623986 5.58515498 -17.99115904 7.66826282 -21.25 11.6875 C-23.17620799 16.28899686 -22.89364395 19.90550882 -21.25 24.5625 C-19.05804167 27.85043749 -16.77146997 29.41259513 -13.375 31.375 C-15.76073379 33.26713369 -17.44675348 34.39891783 -20.375 35.375 C-25.07052374 32.24465084 -28.09572208 29.02073893 -29.375 23.375 C-30.08725128 17.41319295 -30.16021147 12.04214379 -26.71875 6.94140625 C-19.69561289 -1.24544834 -10.38420997 -4.76684686 0 0 Z " fill="#F3E732" transform="translate(415.375,393.625)"/>
<path d="M0 0 C9.79630037 2.63900337 9.79630037 2.63900337 14.11376953 3.93383789 C23.08173596 6.6121723 32.05367796 8.50285244 41.25 10.1875 C43.34704009 10.57590326 45.44368297 10.96623235 47.53973389 11.35993958 C49.40886334 11.71044826 51.27910879 12.05499053 53.14941406 12.39916992 C56 13 56 13 58 14 C58 16.64 58 19.28 58 22 C51.10907978 22.41065077 44.70876945 20.90088339 38 19.4375 C36.77571289 19.17372559 35.55142578 18.90995117 34.29003906 18.63818359 C22.65503437 16.05680804 11.32406734 12.69453162 0 9 C0 6.03 0 3.06 0 0 Z " fill="#BF4D3D" transform="translate(42,299)"/>
<path d="M0 0 C2.37583842 0.58007483 4.75077386 1.1633821 7.125 1.75 C7.86000732 1.93119385 8.59501465 2.1123877 9.35229492 2.29907227 C13.7184825 3.38861546 18.0136436 4.60262064 22.3125 5.9375 C30.73750898 8.41775965 39.38081986 9.82331205 48.02270508 11.33764648 C49.73816528 11.64037476 49.73816528 11.64037476 51.48828125 11.94921875 C52.52509033 12.12799561 53.56189941 12.30677246 54.63012695 12.4909668 C57 13 57 13 58 14 C58.14115161 16.67058851 58.04247107 19.32432238 58 22 C48.78503737 21.61493352 40.15144849 19.88852935 31.22753906 17.72631836 C29.00567974 17.18887387 26.78063523 16.66670532 24.5546875 16.14648438 C16.21317738 14.17190555 8.07813049 11.89991655 0 9 C0 6.03 0 3.06 0 0 Z " fill="#BF4D3E" transform="translate(42,156)"/>
<path d="M0 0 C0.73710205 0.21615967 1.4742041 0.43231934 2.23364258 0.6550293 C19.30137875 5.61834332 36.18917805 9.67751148 53.75463867 12.55444336 C56 13 56 13 58 14 C58 16.64 58 19.28 58 22 C48.41680104 21.56852418 39.43734294 20.00582557 30.125 17.75 C28.79997524 17.43543268 27.47494263 17.1208984 26.14990234 16.80639648 C17.2590315 14.67060414 8.55000259 12.25500099 0 9 C0 6.03 0 3.06 0 0 Z " fill="#BF4D3D" transform="translate(42,442)"/>
<path d="M0 0 C1.55792165 3.11584331 0.21745587 5.94182923 -0.625 9.16796875 C-0.80957764 9.88100662 -0.99415527 10.59404449 -1.18432617 11.32868958 C-1.5804456 12.84205543 -1.98088249 14.35429667 -2.38525391 15.86547852 C-2.99161213 18.15581731 -3.56437153 20.45291795 -4.13671875 22.75195312 C-6.17332853 30.5757578 -8.02669775 37.16315076 -15 42 C-16.51018682 38.07041328 -15.47471682 34.6742858 -14.48828125 30.75 C-14.31878464 30.05487305 -14.14928802 29.35974609 -13.97465515 28.64355469 C-13.61363577 27.17654482 -13.24770177 25.71073683 -12.87719727 24.24609375 C-12.31544045 22.0116957 -11.77902739 19.77221141 -11.24414062 17.53125 C-10.8895482 16.10378639 -10.53347669 14.67668922 -10.17578125 13.25 C-10.0182991 12.58323242 -9.86081696 11.91646484 -9.69856262 11.22949219 C-8.62352026 7.09355473 -7.32529509 4.69555038 -4 2 C-1.75 0.75 -1.75 0.75 0 0 Z " fill="#E8C224" transform="translate(402,425)"/>
<path d="M0 0 C1.59062256 -0.00060425 1.59062256 -0.00060425 3.21337891 -0.0012207 C4.38384766 -0.00444336 5.55431641 -0.00766602 6.76025391 -0.01098633 C8.58169922 0.03058594 8.58169922 0.03058594 10.43994141 0.07299805 C11.64650391 0.05817383 12.85306641 0.04334961 14.09619141 0.02807617 C21.38113527 0.09612235 25.71221726 0.66830472 31.06494141 5.76049805 C31.06494141 6.09049805 31.06494141 6.42049805 31.06494141 6.76049805 C18.19494141 6.76049805 5.32494141 6.76049805 -7.93505859 6.76049805 C-2.93505859 0.76049805 -2.93505859 0.76049805 0 0 Z " fill="#F8E931" transform="translate(394.93505859375,460.239501953125)"/>
</svg>
